<svg width="36" height="36" viewBox="0 0 36 36" fill="none" xmlns="http://www.w3.org/2000/svg">
<path d="M21.8656 25.742C21.2217 27.1531 20.215 28.3679 18.9482 29.2624C17.6814 30.1569 16.2 30.6991 14.6553 30.8334C13.1106 30.9678 11.5579 30.6896 10.1558 30.0273C8.75371 29.3649 7.55247 28.3421 6.67476 27.0634C5.79706 25.7847 5.27433 24.2958 5.15998 22.7488C5.04563 21.2019 5.34375 19.6523 6.02388 18.2583C6.70402 16.8643 7.74181 15.6759 9.03125 14.8144C10.3207 13.9529 11.8156 13.4493 13.3633 13.3548H13.8586C15.0117 13.3535 16.1538 13.5794 17.2197 14.0196C18.2855 14.4598 19.2543 15.1057 20.0706 15.9205C20.887 16.7352 21.5349 17.7029 21.9775 18.7681C22.42 19.8334 22.6485 20.9755 22.6498 22.1291C22.6498 22.2942 22.6498 22.4594 22.6498 22.6245C23.7197 22.5617 24.769 22.3028 25.7453 21.8607C25.6745 18.8057 24.4298 15.8956 22.27 13.7348C20.1101 11.5741 17.2011 10.3289 14.1475 10.2581H13.8792C11.6681 10.2556 9.50035 10.8713 7.62035 12.0356C5.74035 13.1998 4.22291 14.8664 3.23917 16.8474C2.25542 18.8284 1.8445 21.045 2.05275 23.2471C2.261 25.4493 3.08014 27.5494 4.41777 29.3107C5.75541 31.072 7.55834 32.4243 9.62324 33.2152C11.6881 34.0062 13.9328 34.2042 16.1042 33.787C18.2756 33.3698 20.2873 32.3539 21.9124 30.854C23.5375 29.3541 24.7114 27.4298 25.3016 25.2981C24.2705 25.5878 23.2049 25.7371 22.1339 25.742H21.8656Z" fill="#1D0254"/>
<path d="M22.134 2C19.5416 2.00456 17.022 2.85754 14.9595 4.42876C12.8971 5.99997 11.4052 8.20312 10.7115 10.702C11.7427 10.4123 12.8082 10.263 13.8793 10.2581H14.1475C14.7914 8.84698 15.7982 7.63214 17.065 6.73763C18.3317 5.84312 19.8131 5.30099 21.3579 5.16662C22.9026 5.03224 24.4553 5.31044 25.8574 5.97279C27.2594 6.63514 28.4607 7.65792 29.3384 8.93666C30.2161 10.2154 30.7388 11.7043 30.8532 13.2512C30.9675 14.7982 30.6694 16.3478 29.9893 17.7418C29.3091 19.1358 28.2713 20.3242 26.9819 21.1857C25.6924 22.0471 24.1975 22.5508 22.6499 22.6452H22.1546C21.0015 22.6466 19.8594 22.4207 18.7935 21.9805C17.7276 21.5403 16.7589 20.8943 15.9425 20.0796C15.1262 19.2648 14.4782 18.2972 14.0357 17.2319C13.5932 16.1666 13.3647 15.0246 13.3633 13.871C13.3633 13.7058 13.3633 13.5407 13.3633 13.3755C12.2934 13.4383 11.2442 13.6973 10.2678 14.1394C10.3387 17.1943 11.5833 20.1045 13.7432 22.2652C15.903 24.426 18.812 25.6711 21.8657 25.742H22.134C25.2811 25.742 28.2992 24.4913 30.5246 22.2651C32.7499 20.0388 34.0001 17.0194 34.0001 13.871C34.0001 10.7226 32.7499 7.70318 30.5246 5.47693C28.2992 3.25069 25.2811 2 22.134 2Z" fill="#3CAFF2"/>
</svg>
