<svg width="36" height="36" viewBox="0 0 36 36" fill="none" xmlns="http://www.w3.org/2000/svg">
<path fill-rule="evenodd" clip-rule="evenodd" d="M32.1568 9.00088C32.1371 9.00029 32.1172 9 32.0973 9H3.94205C3.92208 9 3.90222 9.00029 3.88249 9.00088H3C2.44772 9.00088 2 9.44859 2 10.0009V32C2 32.5523 2.44772 33 3 33H33C33.5523 33 34 32.5523 34 32V10.0009C34 9.44859 33.5523 9.00088 33 9.00088H32.1568ZM20.5735 19.4353L30 12L6.00024 12.026L15.4182 19.4353H20.5735ZM11.9987 20.8961L4.99823 15.3485V27.4524L11.9987 20.8961ZM30.9998 15.2672L23.9994 20.8961L30.9998 27.4524V15.2672ZM14.9988 22.4091H20.9992L28.9997 29.974H6.99835L14.9988 22.4091Z" fill="#3CAFF2"/>
<path d="M6 12.5625V4C6 3.44772 6.44772 3 7 3H29C29.5523 3 30 3.44772 30 4V12.5625L20.6087 20H15.3913L6 12.5625Z" fill="#1D0254"/>
</svg>
