<svg width="36" height="36" viewBox="0 0 36 36" fill="none" xmlns="http://www.w3.org/2000/svg">
<path d="M21.1828 24.2607C21.2344 24.6659 20.891 24.9986 20.4735 24.9986H9.89118C9.47372 24.9986 9.13035 24.6659 9.1819 24.2607C9.5532 21.3421 12.0981 19.0835 15.1824 19.0835C18.2666 19.0835 20.8115 21.3421 21.1828 24.2607Z" fill="#1D0254"/>
<ellipse cx="15.1594" cy="14.9531" rx="3.00027" ry="2.95457" fill="#1D0254"/>
<path fill-rule="evenodd" clip-rule="evenodd" d="M1.95117 4C1.95117 3.44772 2.39889 3 2.95117 3H26.9512C27.5035 3 27.9512 3.44772 27.9512 4V9H32.9639C33.5162 9 33.9639 9.44772 33.9639 10V27C33.9639 30.3137 31.2776 33 27.9639 33L2.95117 33C2.39889 33 1.95117 32.5523 1.95117 32V4ZM4.95117 30V6H24.9512V30H4.95117ZM27.9639 12H30.9639V27C30.9639 28.6569 29.6207 30 27.9639 30V12Z" fill="#FF2370"/>
</svg>
