<svg width="36" height="36" viewBox="0 0 36 36" fill="none" xmlns="http://www.w3.org/2000/svg">
<rect x="2.02295" y="16" width="14" height="17" rx="1" fill="#FFE03F"/>
<rect x="19" y="3" width="15" height="30" rx="1" fill="#FFE03F"/>
<path fill-rule="evenodd" clip-rule="evenodd" d="M22.2392 7.02783C21.825 7.02783 21.4892 7.36362 21.4892 7.77783V9.77765C21.4892 10.1919 21.825 10.5276 22.2392 10.5276H24.8782L17.9197 17.8149L14.7683 14.919C14.7671 14.9179 14.7659 14.9168 14.7647 14.9157L13.6749 13.8854C13.3741 13.601 12.8997 13.6142 12.615 13.9148L4.61721 22.3631C4.33231 22.6641 4.34549 23.1391 4.64663 23.4237L6.09998 24.7977C6.40083 25.0821 6.87524 25.069 7.15987 24.7683L13.2795 18.3039L17.5489 22.227C17.8508 22.5045 18.3196 22.488 18.6013 22.19L19.6268 21.1053C19.6564 21.074 19.684 21.0417 19.7097 21.0084L27.4865 12.8641V15.7773C27.4865 16.1915 27.8223 16.5273 28.2365 16.5273H30.2351C30.6493 16.5273 30.9851 16.1915 30.9851 15.7773V7.77783C30.9851 7.36362 30.6493 7.02783 30.2351 7.02783H22.2392Z" fill="#1D0254"/>
</svg>
