<svg width="36" height="36" viewBox="0 0 36 36" fill="none" xmlns="http://www.w3.org/2000/svg">
<path d="M3.54286 34C4.39495 34 5.08571 33.3093 5.08571 32.4572C5.08571 31.6051 4.39495 30.9143 3.54286 30.9143C2.69076 30.9143 2 31.6051 2 32.4572C2 33.3093 2.69076 34 3.54286 34Z" fill="#3CAFF2"/>
<path d="M5.60011 29.1001C6.73624 29.1001 7.65725 28.1791 7.65725 27.043C7.65725 25.9069 6.73624 24.9858 5.60011 24.9858C4.46398 24.9858 3.54297 25.9069 3.54297 27.043C3.54297 28.1791 4.46398 29.1001 5.60011 29.1001Z" fill="#3CAFF2"/>
<path d="M10.2611 33.0002C11.5392 33.0002 12.5753 31.964 12.5753 30.6859C12.5753 29.4077 11.5392 28.3716 10.2611 28.3716C8.98292 28.3716 7.94678 29.4077 7.94678 30.6859C7.94678 31.964 8.98292 33.0002 10.2611 33.0002Z" fill="#3CAFF2"/>
<path d="M15 27.9858C16.6569 27.9858 18 26.6427 18 24.9858C18 23.329 16.6569 21.9858 15 21.9858C13.3431 21.9858 12 23.329 12 24.9858C12 26.6427 13.3431 27.9858 15 27.9858Z" fill="#3CAFF2"/>
<path d="M20.9848 21.75C23.0559 21.75 24.7348 20.0711 24.7348 18C24.7348 15.9289 23.0559 14.25 20.9848 14.25C18.9137 14.25 17.2348 15.9289 17.2348 18C17.2348 20.0711 18.9137 21.75 20.9848 21.75Z" fill="#1D0254"/>
<path d="M28.2471 13.5049C31.4227 13.5049 33.9971 10.9305 33.9971 7.75488C33.9971 4.57925 31.4227 2.00488 28.2471 2.00488C25.0714 2.00488 22.4971 4.57925 22.4971 7.75488C22.4971 10.9305 25.0714 13.5049 28.2471 13.5049Z" fill="#1D0254"/>
</svg>
