<svg width="36" height="36" viewBox="0 0 36 36" fill="none" xmlns="http://www.w3.org/2000/svg">
<path fill-rule="evenodd" clip-rule="evenodd" d="M31.7199 20C31.1676 20 30.7236 19.551 30.683 19.0003C30.1586 11.8854 24.1033 5.84706 16.9997 5.32333C16.4489 5.28272 16 4.83877 16 4.28648V3C16 2.44772 16.4485 1.99694 16.9998 2.02961C25.9089 2.55751 33.4423 10.0758 33.9704 19.0002C34.0031 19.5515 33.5523 20 33 20H31.7199ZM25.1595 20C24.6072 20 24.1661 19.55 24.0936 19.0025C23.616 15.398 20.6016 12.4175 16.9975 11.9451C16.4499 11.8734 16 11.4322 16 10.8799V9.59344C16 9.04116 16.4491 8.58874 16.9991 8.63902C22.4064 9.13337 26.8961 13.588 27.3938 19.0009C27.4444 19.5508 26.9919 20 26.4396 20H25.1595Z" fill="#FFE03F"/>
<path d="M24.7673 27.7064C23.9502 26.8699 23.315 26.0383 22.4881 25.2067C22.1177 24.8464 21.6426 24.6161 21.133 24.5497C20.6234 24.4832 20.1061 24.5842 19.6575 24.8376C19.2036 25.1537 18.7916 25.5274 18.4318 25.9497C17.8482 26.5205 17.5321 26.5303 16.9727 25.9497L9.99189 18.7355C9.9238 18.6617 9.85085 18.5928 9.78762 18.519C9.70669 18.4497 9.64167 18.3634 9.59707 18.2661C9.55247 18.1688 9.52936 18.0628 9.52936 17.9556C9.52936 17.8483 9.55247 17.7423 9.59707 17.645C9.64167 17.5477 9.70669 17.4614 9.78762 17.3922C10.0454 17.1215 10.3129 16.8607 10.5755 16.5901C10.8243 16.364 11.0232 16.0874 11.1594 15.7784C11.2956 15.4694 11.366 15.1348 11.366 14.7965C11.366 14.4581 11.2956 14.1236 11.1594 13.8146C11.0232 13.5056 10.8243 13.229 10.5755 13.0029C9.78762 12.1992 8.99484 11.3971 8.1972 10.5967C7.8245 10.2099 7.33401 9.96122 6.80467 9.89071C6.27533 9.8202 5.73794 9.93193 5.27899 10.2079C4.86264 10.499 4.48645 10.8448 4.16034 11.2364C3.47719 11.9016 2.93374 12.6994 2.56254 13.5821C2.19133 14.4649 2 15.4143 2 16.3736C2 17.3329 2.19133 18.2823 2.56254 19.165C2.93374 20.0477 3.47719 20.8456 4.16034 21.5108C7.45792 24.8569 11.005 28.597 14.3123 31.9333C15.6254 33.2489 17.3961 33.9909 19.2441 34C20.2784 33.9809 21.2986 33.7534 22.245 33.3307C23.275 32.8012 24.0045 32.0781 24.7673 31.2001C25.0007 30.9745 25.1864 30.7034 25.3133 30.4032C25.4402 30.1029 25.5056 29.7798 25.5056 29.4532C25.5056 29.1267 25.4402 28.8036 25.3133 28.5033C25.1864 28.2031 25.0007 27.932 24.7673 27.7064Z" fill="#1D0254"/>
</svg>
